<svg width="212" height="20" viewBox="0 0 212 20" fill="none" xmlns="http://www.w3.org/2000/svg">
    <line y1="15.0549" x2="53" y2="15.0549" stroke="#979797"/>
    <path d="M68.888 16.5549V5.35487H73.544C74.728 5.35487 75.656 5.6002 76.328 6.09087C77.0107 6.57087 77.352 7.2802 77.352 8.21887C77.352 9.14687 77.0267 9.85087 76.376 10.3309C75.7253 10.8002 74.872 11.0349 73.816 11.0349L74.088 10.6349C75.336 10.6349 76.2853 10.8802 76.936 11.3709C77.5867 11.8615 77.912 12.5815 77.912 13.5309C77.912 14.4909 77.5707 15.2375 76.888 15.7709C76.216 16.2935 75.2027 16.5549 73.848 16.5549H68.888ZM70.056 15.6109H73.848C74.7973 15.6109 75.5173 15.4349 76.008 15.0829C76.4987 14.7309 76.744 14.1869 76.744 13.4509C76.744 12.7255 76.4987 12.1922 76.008 11.8509C75.5173 11.5095 74.7973 11.3389 73.848 11.3389H70.056V15.6109ZM70.056 10.4269H73.48C74.344 10.4269 75.0053 10.2562 75.464 9.91487C75.9333 9.56287 76.168 9.04554 76.168 8.36287C76.168 7.6802 75.9333 7.1682 75.464 6.82687C75.0053 6.47487 74.344 6.29887 73.48 6.29887H70.056V10.4269ZM88.7924 16.5549V8.15487H89.9284V16.5549H88.7924ZM84.1364 11.1149C85.1924 11.1255 85.9977 11.3602 86.5524 11.8189C87.107 12.2775 87.3844 12.9389 87.3844 13.8029C87.3844 14.6989 87.0857 15.3869 86.4884 15.8669C85.891 16.3469 85.0377 16.5815 83.9284 16.5709L80.6004 16.5549V8.15487H81.7364V11.0829L84.1364 11.1149ZM83.8484 15.7069C84.6377 15.7175 85.2297 15.5629 85.6244 15.2429C86.0297 14.9122 86.2324 14.4322 86.2324 13.8029C86.2324 13.1735 86.035 12.7149 85.6404 12.4269C85.2457 12.1282 84.6484 11.9735 83.8484 11.9629L81.7364 11.9309V15.6749L83.8484 15.7069ZM96.9389 16.6509C96.2562 16.6509 95.6482 16.5389 95.1149 16.3149C94.5922 16.0909 94.1442 15.7495 93.7709 15.2909C93.3975 14.8322 93.1149 14.2669 92.9229 13.5949C92.7309 12.9122 92.6349 12.1229 92.6349 11.2269C92.6349 10.4269 92.7095 9.7282 92.8589 9.13087C93.0082 8.52287 93.2162 8.0002 93.4829 7.56287C93.7495 7.12554 94.0589 6.75754 94.4109 6.45887C94.7735 6.14954 95.1629 5.9042 95.5789 5.72287C96.0055 5.53087 96.4429 5.38687 96.8909 5.29087L100.667 4.41087L100.859 5.46687L97.3069 6.26687C97.0829 6.3202 96.8109 6.39487 96.4909 6.49087C96.1815 6.58687 95.8615 6.73087 95.5309 6.92287C95.2109 7.11487 94.9122 7.38154 94.6349 7.72287C94.3575 8.0642 94.1335 8.50687 93.9629 9.05087C93.8029 9.5842 93.7229 10.2509 93.7229 11.0509C93.7229 11.2215 93.7282 11.3602 93.7389 11.4669C93.7495 11.5629 93.7602 11.6695 93.7709 11.7869C93.7922 11.8935 93.8082 12.0535 93.8189 12.2669L93.3229 11.8509C93.4402 11.2002 93.6802 10.6349 94.0429 10.1549C94.4055 9.6642 94.8589 9.28554 95.4029 9.01887C95.9575 8.74154 96.5709 8.60287 97.2429 8.60287C98.0215 8.60287 98.7149 8.77354 99.3229 9.11487C99.9309 9.44554 100.406 9.90954 100.747 10.5069C101.099 11.1042 101.275 11.7975 101.275 12.5869C101.275 13.3655 101.094 14.0642 100.731 14.6829C100.379 15.3015 99.8775 15.7869 99.2269 16.1389C98.5762 16.4802 97.8135 16.6509 96.9389 16.6509ZM97.0669 15.7069C97.6642 15.7069 98.1922 15.5735 98.6509 15.3069C99.1095 15.0295 99.4669 14.6562 99.7229 14.1869C99.9895 13.7175 100.123 13.1895 100.123 12.6029C100.123 12.0269 99.9895 11.5149 99.7229 11.0669C99.4669 10.6189 99.1095 10.2669 98.6509 10.0109C98.1922 9.7442 97.6589 9.61087 97.0509 9.61087C96.4535 9.61087 95.9255 9.73887 95.4669 9.99487C95.0082 10.2402 94.6455 10.5869 94.3789 11.0349C94.1229 11.4829 93.9949 12.0002 93.9949 12.5869C93.9949 13.1735 94.1229 13.7015 94.3789 14.1709C94.6455 14.6402 95.0082 15.0135 95.4669 15.2909C95.9362 15.5682 96.4695 15.7069 97.0669 15.7069ZM107.166 16.6349C106.355 16.6349 105.624 16.4535 104.974 16.0909C104.334 15.7175 103.827 15.2109 103.454 14.5709C103.08 13.9202 102.894 13.1789 102.894 12.3469C102.894 11.5042 103.08 10.7629 103.454 10.1229C103.827 9.48287 104.334 8.98154 104.974 8.61887C105.614 8.2562 106.344 8.07487 107.166 8.07487C107.998 8.07487 108.734 8.2562 109.374 8.61887C110.024 8.98154 110.531 9.48287 110.894 10.1229C111.267 10.7629 111.454 11.5042 111.454 12.3469C111.454 13.1789 111.267 13.9202 110.894 14.5709C110.531 15.2109 110.024 15.7175 109.374 16.0909C108.723 16.4535 107.987 16.6349 107.166 16.6349ZM107.166 15.6269C107.774 15.6269 108.312 15.4935 108.782 15.2269C109.251 14.9495 109.619 14.5655 109.886 14.0749C110.163 13.5735 110.302 12.9975 110.302 12.3469C110.302 11.6855 110.163 11.1095 109.886 10.6189C109.619 10.1282 109.251 9.74954 108.782 9.48287C108.312 9.20554 107.779 9.06687 107.182 9.06687C106.584 9.06687 106.051 9.20554 105.582 9.48287C105.112 9.74954 104.739 10.1282 104.462 10.6189C104.184 11.1095 104.046 11.6855 104.046 12.3469C104.046 12.9975 104.184 13.5735 104.462 14.0749C104.739 14.5655 105.112 14.9495 105.582 15.2269C106.051 15.4935 106.579 15.6269 107.166 15.6269ZM118.218 16.6349C117.492 16.6349 116.836 16.4695 116.25 16.1389C115.663 15.7975 115.194 15.3122 114.842 14.6829C114.5 14.0429 114.33 13.2642 114.33 12.3469C114.33 11.4295 114.5 10.6562 114.842 10.0269C115.183 9.38687 115.647 8.90154 116.234 8.57087C116.82 8.2402 117.482 8.07487 118.218 8.07487C119.018 8.07487 119.732 8.2562 120.362 8.61887C121.002 8.97087 121.503 9.4722 121.866 10.1229C122.228 10.7629 122.41 11.5042 122.41 12.3469C122.41 13.2002 122.228 13.9469 121.866 14.5869C121.503 15.2269 121.002 15.7282 120.362 16.0909C119.732 16.4535 119.018 16.6349 118.218 16.6349ZM113.882 19.6589V8.15487H114.97V10.6829L114.858 12.3629L115.018 14.0589V19.6589H113.882ZM118.138 15.6269C118.735 15.6269 119.268 15.4935 119.738 15.2269C120.207 14.9495 120.58 14.5655 120.858 14.0749C121.135 13.5735 121.274 12.9975 121.274 12.3469C121.274 11.6962 121.135 11.1255 120.858 10.6349C120.58 10.1442 120.207 9.7602 119.738 9.48287C119.268 9.20554 118.735 9.06687 118.138 9.06687C117.54 9.06687 117.002 9.20554 116.522 9.48287C116.052 9.7602 115.679 10.1442 115.402 10.6349C115.135 11.1255 115.002 11.6962 115.002 12.3469C115.002 12.9975 115.135 13.5735 115.402 14.0749C115.679 14.5655 116.052 14.9495 116.522 15.2269C117.002 15.4935 117.54 15.6269 118.138 15.6269ZM134.11 16.6509C133.267 16.6509 132.489 16.5122 131.774 16.2349C131.059 15.9469 130.441 15.5469 129.918 15.0349C129.395 14.5229 128.985 13.9202 128.686 13.2269C128.398 12.5335 128.254 11.7762 128.254 10.9549C128.254 10.1335 128.398 9.3762 128.686 8.68287C128.985 7.98954 129.395 7.38687 129.918 6.87487C130.451 6.36287 131.075 5.9682 131.79 5.69087C132.505 5.40287 133.283 5.25887 134.126 5.25887C134.937 5.25887 135.699 5.39754 136.414 5.67487C137.129 5.94154 137.731 6.34687 138.222 6.89087L137.47 7.64287C137.011 7.17354 136.505 6.83754 135.95 6.63487C135.395 6.42154 134.798 6.31487 134.158 6.31487C133.486 6.31487 132.862 6.4322 132.286 6.66687C131.71 6.89087 131.209 7.2162 130.782 7.64287C130.355 8.05887 130.019 8.54954 129.774 9.11487C129.539 9.66954 129.422 10.2829 129.422 10.9549C129.422 11.6269 129.539 12.2455 129.774 12.8109C130.019 13.3655 130.355 13.8562 130.782 14.2829C131.209 14.6989 131.71 15.0242 132.286 15.2589C132.862 15.4829 133.486 15.5949 134.158 15.5949C134.798 15.5949 135.395 15.4882 135.95 15.2749C136.505 15.0615 137.011 14.7202 137.47 14.2509L138.222 15.0029C137.731 15.5469 137.129 15.9575 136.414 16.2349C135.699 16.5122 134.931 16.6509 134.11 16.6509ZM140.506 16.5549V8.15487H141.642V16.5549H140.506ZM141.082 6.29887C140.847 6.29887 140.65 6.21887 140.49 6.05887C140.33 5.89887 140.25 5.70687 140.25 5.48287C140.25 5.25887 140.33 5.0722 140.49 4.92287C140.65 4.76287 140.847 4.68287 141.082 4.68287C141.317 4.68287 141.514 4.75754 141.674 4.90687C141.834 5.0562 141.914 5.24287 141.914 5.46687C141.914 5.70154 141.834 5.89887 141.674 6.05887C141.525 6.21887 141.327 6.29887 141.082 6.29887ZM149.091 8.07487C149.773 8.07487 150.371 8.2082 150.883 8.47487C151.405 8.73087 151.811 9.12554 152.099 9.65887C152.397 10.1922 152.547 10.8642 152.547 11.6749V16.5549H151.411V11.7869C151.411 10.9015 151.187 10.2349 150.739 9.78687C150.301 9.3282 149.683 9.09887 148.883 9.09887C148.285 9.09887 147.763 9.22154 147.315 9.46687C146.877 9.70154 146.536 10.0482 146.291 10.5069C146.056 10.9549 145.939 11.4989 145.939 12.1389V16.5549H144.803V8.15487H145.891V10.4589L145.715 10.0269C145.981 9.41887 146.408 8.9442 146.995 8.60287C147.581 8.25087 148.28 8.07487 149.091 8.07487ZM159.183 16.6349C158.309 16.6349 157.541 16.4535 156.879 16.0909C156.218 15.7175 155.701 15.2109 155.327 14.5709C154.954 13.9202 154.767 13.1789 154.767 12.3469C154.767 11.5149 154.943 10.7789 155.295 10.1389C155.658 9.49887 156.149 8.99754 156.767 8.63487C157.397 8.26154 158.101 8.07487 158.879 8.07487C159.669 8.07487 160.367 8.2562 160.975 8.61887C161.594 8.97087 162.079 9.4722 162.431 10.1229C162.783 10.7629 162.959 11.5042 162.959 12.3469C162.959 12.4002 162.954 12.4589 162.943 12.5229C162.943 12.5762 162.943 12.6349 162.943 12.6989H155.631V11.8509H162.335L161.887 12.1869C161.887 11.5789 161.754 11.0402 161.487 10.5709C161.231 10.0909 160.879 9.71754 160.431 9.45087C159.983 9.1842 159.466 9.05087 158.879 9.05087C158.303 9.05087 157.786 9.1842 157.327 9.45087C156.869 9.71754 156.511 10.0909 156.255 10.5709C155.999 11.0509 155.871 11.6002 155.871 12.2189V12.3949C155.871 13.0349 156.01 13.6002 156.287 14.0909C156.575 14.5709 156.97 14.9495 157.471 15.2269C157.983 15.4935 158.565 15.6269 159.215 15.6269C159.727 15.6269 160.202 15.5362 160.639 15.3549C161.087 15.1735 161.471 14.8962 161.791 14.5229L162.431 15.2589C162.058 15.7069 161.589 16.0482 161.023 16.2829C160.469 16.5175 159.855 16.6349 159.183 16.6349ZM175.768 8.07487C176.45 8.07487 177.042 8.2082 177.544 8.47487C178.056 8.73087 178.45 9.12554 178.728 9.65887C179.016 10.1922 179.16 10.8642 179.16 11.6749V16.5549H178.024V11.7869C178.024 10.9015 177.81 10.2349 177.384 9.78687C176.968 9.3282 176.376 9.09887 175.608 9.09887C175.032 9.09887 174.53 9.22154 174.104 9.46687C173.688 9.70154 173.362 10.0482 173.128 10.5069C172.904 10.9549 172.792 11.4989 172.792 12.1389V16.5549H171.656V11.7869C171.656 10.9015 171.442 10.2349 171.016 9.78687C170.589 9.3282 169.992 9.09887 169.224 9.09887C168.658 9.09887 168.162 9.22154 167.736 9.46687C167.309 9.70154 166.978 10.0482 166.744 10.5069C166.52 10.9549 166.408 11.4989 166.408 12.1389V16.5549H165.272V8.15487H166.36V10.4269L166.184 10.0269C166.44 9.41887 166.85 8.9442 167.416 8.60287C167.992 8.25087 168.669 8.07487 169.448 8.07487C170.269 8.07487 170.968 8.28287 171.544 8.69887C172.12 9.1042 172.493 9.71754 172.664 10.5389L172.216 10.3629C172.461 9.6802 172.893 9.13087 173.512 8.71487C174.141 8.2882 174.893 8.07487 175.768 8.07487ZM187.504 16.5549V14.6989L187.456 14.3949V11.2909C187.456 10.5762 187.254 10.0269 186.848 9.64287C186.454 9.25887 185.862 9.06687 185.072 9.06687C184.528 9.06687 184.011 9.15754 183.52 9.33887C183.03 9.5202 182.614 9.7602 182.272 10.0589L181.76 9.21087C182.187 8.8482 182.699 8.57087 183.296 8.37887C183.894 8.1762 184.523 8.07487 185.184 8.07487C186.272 8.07487 187.11 8.34687 187.696 8.89087C188.294 9.4242 188.592 10.2402 188.592 11.3389V16.5549H187.504ZM184.608 16.6349C183.979 16.6349 183.43 16.5335 182.96 16.3309C182.502 16.1175 182.15 15.8295 181.904 15.4669C181.659 15.0935 181.536 14.6669 181.536 14.1869C181.536 13.7495 181.638 13.3549 181.84 13.0029C182.054 12.6402 182.395 12.3522 182.864 12.1389C183.344 11.9149 183.984 11.8029 184.784 11.8029H187.68V12.6509H184.816C184.006 12.6509 183.44 12.7949 183.12 13.0829C182.811 13.3709 182.656 13.7282 182.656 14.1549C182.656 14.6349 182.843 15.0189 183.216 15.3069C183.59 15.5949 184.112 15.7389 184.784 15.7389C185.424 15.7389 185.974 15.5949 186.432 15.3069C186.902 15.0082 187.243 14.5815 187.456 14.0269L187.712 14.8109C187.499 15.3655 187.126 15.8082 186.592 16.1389C186.07 16.4695 185.408 16.6349 184.608 16.6349ZM190.398 16.5549L193.95 11.9469L193.934 12.5069L190.558 8.15487H191.838L194.606 11.7549L194.126 11.7389L196.894 8.15487H198.142L194.734 12.5549L194.75 11.9469L198.334 16.5549H197.038L194.11 12.7149L194.558 12.7789L191.678 16.5549H190.398Z" fill="#979797"/>
</svg>
